<?xml version="1.0" encoding="utf-8"?>
<!-- Generator: Adobe Illustrator 27.5.0, SVG Export Plug-In . SVG Version: 6.00 Build 0)  -->
<svg version="1.1" xmlns="http://www.w3.org/2000/svg" xmlns:xlink="http://www.w3.org/1999/xlink" x="0px" y="0px"
	 viewBox="0 0 500 500" style="enable-background:new 0 0 500 500;" xml:space="preserve">
<g id="BACKGROUND">
	<rect style="fill:#FFFFFF;" width="500" height="500"/>
</g>
<g id="OBJECTS">
	<g>
		<g>
			<path style="fill:#E3EFFF;" d="M40.12,134.389c-11.761,43.47-3.044,89.499,9.2,132.848c9.438,33.413,21.481,67.223,45.046,93.564
				c36.729,41.056,95.676,57.538,152.074,62.575c27.433,2.45,55.994,2.534,81.441-7.525c19.824-7.836,36.561-21.375,51.708-35.854
				c39.108-37.385,70.421-83.671,81.629-135.343c11.208-51.672,0.379-108.936-35.616-149.055
				c-33.378-37.202-84.693-56.426-135.75-62.001C199.29,23.707,67.465,33.321,40.12,134.389z"/>
		</g>
		<g>
			<path style="fill:#F2F8FF;" d="M425.602,95.598c-1.355-1.511-2.751-2.981-4.164-4.432c-10.251,7.588-16.694,19.514-24.475,29.812
				c-8.532,11.294-21.485,21.768-35.402,19.188c-9.01-1.67-16.188-8.489-24.827-11.544c-15.51-5.485-32.806,2.118-45.338,12.777
				c-12.532,10.659-22.281,24.359-35.246,34.487s-31.183,16.277-45.887,8.9c-11.133-5.586-19.449-18.336-31.903-18.135
				c-13.671,0.22-21.131,15.376-27.773,27.328c-9.291,16.719-25.541,32.286-44.62,30.933c-16.609-1.178-30.36-14.859-46.972-15.993
				c-7.6-0.519-15.303,1.885-21.423,6.401c2.695,17.508,6.946,34.919,11.748,51.919c3.001,10.626,6.268,21.29,10.083,31.743
				c14.364,1.005,28.867-9.927,38.946-21.418c11.923-13.593,23.75-29.952,41.58-32.96c18.219-3.073,35.926,9.261,54.381,8.373
				c17.341-0.834,31.739-12.942,45.265-23.825c13.526-10.883,29.594-21.672,46.776-19.189c13.895,2.008,25.843,12.531,39.881,12.748
				c17.721,0.273,30.923-15.361,42.699-28.608c11.775-13.246,29.189-26.419,45.642-19.829c7.431,2.977,13.693,9.812,21.695,9.569
				c11.274-0.342,16.396-13.508,23.754-22.593C453.902,137.149,442.539,114.475,425.602,95.598z"/>
		</g>
		<g>
			<defs>
				<path id="SVGID_1_" d="M40.12,134.389c-11.761,43.47-3.044,89.499,9.2,132.848c9.438,33.413,21.481,67.223,45.046,93.564
					c36.729,41.056,95.676,57.538,152.074,62.575c27.433,2.45,55.994,2.534,81.441-7.525c19.824-7.836,36.561-21.375,51.708-35.854
					c39.108-37.385,70.421-83.671,81.629-135.343c11.208-51.672,0.379-108.936-35.616-149.055
					c-33.378-37.202-84.693-56.426-135.75-62.001C199.29,23.707,67.465,33.321,40.12,134.389z"/>
			</defs>
			<clipPath id="SVGID_00000080888227882268827930000005109673090536997803_">
				<use xlink:href="#SVGID_1_"  style="overflow:visible;"/>
			</clipPath>
			<g style="clip-path:url(#SVGID_00000080888227882268827930000005109673090536997803_);">
				<polygon style="fill:#C4DEFF;" points="412.653,270.492 412.653,258.377 417.865,258.377 417.865,245.024 404.752,245.024 
					404.752,232.448 383.811,232.448 383.811,245.024 341.962,245.024 341.962,258.377 347.173,258.377 347.173,270.931 
					288.906,270.931 288.906,221.641 198.575,221.641 198.575,197.725 181.695,197.725 181.695,168.322 170.677,168.322 
					170.677,157.557 158.951,157.557 158.951,168.322 147.933,168.322 147.933,197.725 131.053,197.725 131.053,270.931 
					97.793,270.931 97.793,225.665 83.31,225.665 83.31,200.439 73.857,200.439 73.857,175.117 63.798,175.117 63.798,200.439 
					54.345,200.439 54.345,225.665 39.862,225.665 39.862,438.083 459.825,439.329 459.825,283.808 				"/>
			</g>
		</g>
	</g>
	<g>
		<g>
			<path style="fill:#FFFFFF;" d="M395.164,152.27c-22.566,0-41.901,13.817-50.016,33.451c-5.417-2.993-11.644-4.699-18.271-4.699
				c-16.519,0-30.563,10.588-35.721,25.348h158.107C449.264,176.491,425.042,152.27,395.164,152.27z"/>
		</g>
		<g>
			<path style="fill:#FFFFFF;" d="M116.22,92.328c-22.565,0-41.901,13.817-50.016,33.451c-5.417-2.993-11.644-4.699-18.271-4.699
				c-16.519,0-30.563,10.588-35.721,25.347H170.32C170.32,116.549,146.099,92.328,116.22,92.328z"/>
		</g>
		<g>
			<path style="fill:#FFFFFF;" d="M295.144,59.074c-22.566,0-41.901,13.817-50.016,33.451c-5.417-2.993-11.644-4.699-18.271-4.699
				c-16.519,0-30.563,10.588-35.721,25.347h158.107C349.244,83.295,325.023,59.074,295.144,59.074z"/>
		</g>
	</g>
	<g>
		<g>
			<g>
				<path style="fill:#152C4F;" d="M235.87,192.621c-0.913,0.114-1.865-0.196-2.541-0.92c-1.119-1.199-1.055-3.078,0.143-4.197
					c9.048-8.451,18.957-16.067,29.452-22.636c1.39-0.87,3.223-0.449,4.093,0.941c0.87,1.39,0.449,3.223-0.941,4.093
					c-10.173,6.368-19.778,13.751-28.549,21.943C237.052,192.288,236.469,192.546,235.87,192.621z"/>
			</g>
		</g>
		<g>
			<g>
				<g>
					<path style="fill:#FE785E;" d="M192.74,225.341c-17.842,0-33.384-3.945-48.521-13.391c-2.489-1.553-7.23-8.63-5.677-11.12
						c1.552-2.489,9.723,4.445,12.212,6c6.615,4.128,38.74,6.852,42.156,6.037c13.856-3.307,40.37-18.139,47.969-24.32
						c2.276-1.851,7.999,3.992,9.85,6.269c1.852,2.276,1.507,5.622-0.769,7.473C234.608,214.776,216.647,225.341,192.74,225.341z"/>
				</g>
			</g>
			<g>
				<path style="fill:#E04848;" d="M228.819,217.731c-5.489-6.128-8.033-9.517-10.324-17.376
					c10.812-6.183,22.383-11.809,22.383-11.809c3.41-0.786,3.226,0.714,6.653,1.751c3.287,0.995,6.665,4.091,6.198,7.62
					C252.303,208.689,228.819,217.731,228.819,217.731z"/>
			</g>
			<g>
				<g>
					<path style="fill:#FE785E;" d="M149.355,204.216c-0.355,0.632-1.091-0.074-1.635-1.496c-1.219-3.186-0.148-6.548,1.292-9.457
						c0.44-0.889,1.413-1.503,2.337-0.859C152.989,193.547,150.284,202.562,149.355,204.216z"/>
				</g>
				<g>
					<g>
						<path style="fill:#152C4F;" d="M141.855,185.447l-5.458,2.685c-0.683,0.336-0.918,1.256-0.525,2.055l9.128,18.557
							c0.393,0.799,1.265,1.175,1.948,0.839l5.458-2.685c0.683-0.336,0.918-1.256,0.525-2.055l-9.128-18.557
							C143.41,185.486,142.538,185.111,141.855,185.447z"/>
					</g>
					<g>
						<g>
							<path style="fill:#004585;" d="M143.025,184.871l-5.956,2.93c-0.745,0.367-1.031,1.312-0.637,2.111l9.128,18.557
								c0.393,0.799,1.316,1.15,2.061,0.784l5.956-2.93c0.745-0.367,1.031-1.312,0.637-2.111l-9.128-18.557
								C144.693,184.856,143.77,184.505,143.025,184.871L143.025,184.871z"/>
						</g>
					</g>
				</g>
				<g>
					<path style="fill:#FE785E;" d="M140.774,196.077c1.031,0.017,2.123,0.514,2.761,1.217c0.697,0.768,1.087,1.78,1.282,2.786
						c0.171,0.886,0.227,1.793,0.227,2.694c0,3.363-3.923,6.413-5.584,2.995c-0.546-1.123-1.139-2.985-1.288-4.07
						c-0.2-1.454-0.345-3.36,0.537-4.646C139.194,196.345,139.965,196.063,140.774,196.077z"/>
				</g>
			</g>
		</g>
		<g>
			<g>
				<g>
					<g>
						<g>
							<path style="fill:#266097;" d="M236.294,413.752c-1.926-0.431-3.062-2.503-1.327-4.281c2.621-2.687,16.29-6.097,22.043-6.369
								c2.082-0.099,4.391,0.096,5.557,2.053c1.235,2.073,2.471,7.5-0.323,8.857c-1.023,0.497-2.208,0.484-3.345,0.461
								c-6.021-0.121-12.044-0.198-18.064-0.336C239.973,414.118,237.957,414.125,236.294,413.752z"/>
						</g>
					</g>
				</g>
			</g>
			<g>
				<g>
					<path style="fill:#FE9B88;" d="M252.215,403.576l1.202-25.491c0.368-2.436,4.211,2.11,6.646,2.478
						c0.01,0.002,0.021,0.003,0.031,0.005c2.419,0.382,6.099,0.391,5.734,2.815l-4.783,20.566
						C259.861,408.782,252.175,406.604,252.215,403.576z"/>
				</g>
			</g>
			<g>
				<g>
					<polygon style="fill:#152C4F;" points="263.082,396.023 252.175,394.411 260.221,259.211 293.985,259.211 					"/>
				</g>
			</g>
		</g>
		<g>
			<g style="opacity:0.1;">
				<g>
					<ellipse style="fill:#004585;" cx="250" cy="440.158" rx="166.631" ry="7.919"/>
				</g>
			</g>
			<g>
				<g>
					<path style="fill:#152C4F;" d="M177.368,253.443h-9.166c-2.6,0-4.707-2.107-4.707-4.707l0,0c0-2.6,2.107-4.707,4.707-4.707
						h9.166c2.6,0,4.707,2.107,4.707,4.707l0,0C182.075,251.335,179.968,253.443,177.368,253.443z"/>
				</g>
			</g>
			<g>
				<g>
					<path style="fill:#8CC0FF;" d="M180.339,248.736c0,1.686-1.366,3.052-3.052,3.052c-1.686,0-3.052-1.367-3.052-3.052
						c0-1.686,1.366-3.052,3.052-3.052C178.973,245.684,180.339,247.05,180.339,248.736z"/>
				</g>
			</g>
			<g>
				<g>
					<g>
						<g>
							<g>
								<g>
									<g>
										<g>
											<polygon style="fill:#B6D7FF;" points="346.294,434.443 337.446,386.623 337.854,386.547 346.702,434.367 											"/>
										</g>
									</g>
									<g>
										<g>
											<polygon style="fill:#B6D7FF;" points="337.854,434.443 337.446,434.367 346.294,386.547 346.702,386.623 											"/>
										</g>
									</g>
								</g>
								<g>
									<g>
										<g>
											<polygon style="fill:#B6D7FF;" points="346.294,386.474 337.446,338.654 337.854,338.578 346.702,386.398 											"/>
										</g>
									</g>
									<g>
										<g>
											<polygon style="fill:#B6D7FF;" points="337.854,386.474 337.446,386.398 346.294,338.578 346.702,338.654 											"/>
										</g>
									</g>
								</g>
							</g>
							<g>
								<g>
									<g>
										<g>
											
												<rect x="293.774" y="386.303" transform="matrix(0.9833 -0.182 0.182 0.9833 -65.0417 64.3588)" style="fill:#B6D7FF;" width="48.631" height="0.414"/>
										</g>
									</g>
									<g>
										<g>
											
												<rect x="317.882" y="362.195" transform="matrix(0.1819 -0.9833 0.9833 0.1819 -119.842 628.9708)" style="fill:#B6D7FF;" width="0.414" height="48.631"/>
										</g>
									</g>
								</g>
								<g>
									<g>
										<g>
											
												<rect x="341.742" y="386.303" transform="matrix(0.9833 -0.182 0.182 0.9833 -64.2403 73.0904)" style="fill:#B6D7FF;" width="48.631" height="0.414"/>
										</g>
									</g>
									<g>
										<g>
											
												<rect x="365.851" y="362.195" transform="matrix(0.1819 -0.9833 0.9833 0.1819 -80.6007 676.1387)" style="fill:#B6D7FF;" width="0.414" height="48.631"/>
										</g>
									</g>
								</g>
							</g>
						</g>
						<g>
							<g>
								<g>
									<g>
										<g>
											
												<rect x="300.798" y="403.262" transform="matrix(0.5662 -0.8242 0.8242 0.5662 -191.534 442.9863)" style="fill:#B6D7FF;" width="48.631" height="0.414"/>
										</g>
									</g>
									<g>
										<g>
											
												<rect x="300.798" y="403.262" transform="matrix(0.8235 -0.5674 0.5674 0.8235 -171.5234 255.6922)" style="fill:#B6D7FF;" width="48.631" height="0.415"/>
										</g>
									</g>
								</g>
								<g>
									<g>
										<g>
											
												<rect x="334.717" y="369.344" transform="matrix(0.5661 -0.8244 0.8244 0.5661 -148.8463 456.3321)" style="fill:#B6D7FF;" width="48.632" height="0.414"/>
										</g>
									</g>
									<g>
										<g>
											
												<rect x="334.717" y="369.343" transform="matrix(0.8235 -0.5674 0.5674 0.8235 -146.2903 268.9489)" style="fill:#B6D7FF;" width="48.632" height="0.415"/>
										</g>
									</g>
								</g>
							</g>
							<g>
								<g>
									<g>
										<g>
											
												<rect x="324.907" y="345.235" transform="matrix(0.5667 -0.824 0.824 0.5667 -163.6071 428.0182)" style="fill:#B6D7FF;" width="0.415" height="48.631"/>
										</g>
									</g>
									<g>
										<g>
											
												<rect x="324.907" y="345.235" transform="matrix(0.824 -0.5667 0.5667 0.824 -152.1734 249.2864)" style="fill:#B6D7FF;" width="0.414" height="48.632"/>
										</g>
									</g>
								</g>
								<g>
									<g>
										<g>
											
												<rect x="358.826" y="379.154" transform="matrix(0.5667 -0.824 0.824 0.5667 -176.8562 470.6661)" style="fill:#B6D7FF;" width="0.415" height="48.632"/>
										</g>
									</g>
									<g>
										<g>
											
												<rect x="358.826" y="379.154" transform="matrix(0.824 -0.5667 0.5667 0.824 -165.4227 274.4792)" style="fill:#B6D7FF;" width="0.414" height="48.631"/>
										</g>
									</g>
								</g>
							</g>
						</g>
					</g>
					<g>
						<g>
							<g>
								
									<ellipse transform="matrix(0.923 -0.3847 0.3847 0.923 -122.6198 161.4119)" style="fill:#FFFFFF;" cx="342.074" cy="387.144" rx="8.797" ry="8.797"/>
							</g>
						</g>
						<g>
							<g>
								<path style="fill:#266097;" d="M342.074,397.185c-5.536,0-10.041-4.504-10.041-10.041c0-5.537,4.505-10.041,10.041-10.041
									c5.537,0,10.041,4.505,10.041,10.041C352.115,392.681,347.61,397.185,342.074,397.185z M342.074,379.592
									c-4.165,0-7.553,3.388-7.553,7.552c0,4.164,3.388,7.552,7.553,7.552c4.164,0,7.553-3.387,7.553-7.552
									C349.626,382.98,346.238,379.592,342.074,379.592z"/>
							</g>
						</g>
					</g>
				</g>
				<g>
					<g>
						<path style="fill:#266097;" d="M342.074,343.745c23.931,0,43.4,19.469,43.4,43.4c0,23.931-19.469,43.4-43.4,43.4
							c-23.931,0-43.4-19.469-43.4-43.4C298.674,363.214,318.143,343.745,342.074,343.745 M342.074,336.33
							c-28.064,0-50.814,22.75-50.814,50.814c0,28.064,22.75,50.814,50.814,50.814c28.064,0,50.814-22.75,50.814-50.814
							C392.888,359.081,370.138,336.33,342.074,336.33L342.074,336.33z"/>
					</g>
				</g>
				<g>
					<g>
						<path style="fill:#004585;" d="M341.958,441.576c-30.136,0-54.653-24.517-54.653-54.653c0-30.135,24.517-54.652,54.653-54.652
							c30.136,0,54.652,24.516,54.652,54.652C396.61,417.059,372.094,441.576,341.958,441.576z M341.958,339.703
							c-26.037,0-47.221,21.183-47.221,47.22c0,26.037,21.183,47.221,47.221,47.221c26.037,0,47.22-21.183,47.22-47.221
							C389.178,360.886,367.995,339.703,341.958,339.703z"/>
					</g>
				</g>
				<g>
					<g>
						<path style="fill:#8CC0FF;" d="M280.074,388.016c-0.603-34.125,26.67-62.378,60.795-62.982
							c16.536-0.285,32.186,5.872,44.082,17.354c11.896,11.482,18.608,26.911,18.9,43.442l-8.416,0.148
							c-0.252-14.283-6.052-27.612-16.33-37.534c-10.279-9.921-23.81-15.254-38.087-14.993
							c-29.485,0.521-53.049,24.931-52.528,54.417L280.074,388.016z"/>
					</g>
				</g>
				<g style="opacity:0.5;">
					<g>
						<g>
							<path style="fill:#FFFFFF;" d="M387.113,352.987c-0.582,0-1.159-0.255-1.55-0.746c-5.829-7.316-13.452-13.093-22.043-16.703
								c-1.008-0.423-1.482-1.584-1.058-2.592c0.423-1.009,1.583-1.482,2.592-1.058c9.202,3.867,17.365,10.052,23.606,17.886
								c0.681,0.855,0.54,2.101-0.315,2.782C387.981,352.846,387.545,352.987,387.113,352.987z"/>
						</g>
					</g>
					<g>
						<g>
							<path style="fill:#FFFFFF;" d="M396.746,370.778c-0.831,0-1.604-0.527-1.879-1.359c-1.11-3.359-2.552-6.629-4.287-9.721
								c-0.535-0.953-0.196-2.16,0.758-2.695c0.953-0.536,2.16-0.197,2.695,0.758c1.859,3.312,3.405,6.816,4.594,10.416
								c0.343,1.038-0.22,2.158-1.259,2.501C397.162,370.746,396.952,370.778,396.746,370.778z"/>
						</g>
					</g>
				</g>
			</g>
			<g>
				<g>
					<g>
						<g>
							<g>
								<g>
									<g>
										<g>
											<polygon style="fill:#B6D7FF;" points="159.152,434.443 150.305,386.623 150.712,386.547 159.56,434.367 											"/>
										</g>
									</g>
									<g>
										<g>
											<polygon style="fill:#B6D7FF;" points="150.712,434.443 150.305,434.367 159.152,386.547 159.56,386.623 											"/>
										</g>
									</g>
								</g>
								<g>
									<g>
										<g>
											<polygon style="fill:#B6D7FF;" points="159.152,386.474 150.305,338.654 150.712,338.578 159.56,386.398 											"/>
										</g>
									</g>
									<g>
										<g>
											<polygon style="fill:#B6D7FF;" points="150.712,386.474 150.305,386.398 159.152,338.578 159.56,338.654 											"/>
										</g>
									</g>
								</g>
							</g>
							<g>
								<g>
									<g>
										<g>
											
												<rect x="106.632" y="386.303" transform="matrix(0.9833 -0.182 0.182 0.9833 -68.1737 30.2967)" style="fill:#B6D7FF;" width="48.631" height="0.414"/>
										</g>
									</g>
									<g>
										<g>
											
												<rect x="130.741" y="362.195" transform="matrix(0.1819 -0.9833 0.9833 0.1819 -272.9356 444.9527)" style="fill:#B6D7FF;" width="0.414" height="48.631"/>
										</g>
									</g>
								</g>
								<g>
									<g>
										<g>
											
												<rect x="154.601" y="386.303" transform="matrix(0.9833 -0.182 0.182 0.9833 -67.3669 39.0253)" style="fill:#B6D7FF;" width="48.631" height="0.414"/>
										</g>
									</g>
									<g>
										<g>
											
												<rect x="178.71" y="362.195" transform="matrix(0.1819 -0.9833 0.9833 0.1819 -233.6942 492.1207)" style="fill:#B6D7FF;" width="0.414" height="48.631"/>
										</g>
									</g>
								</g>
							</g>
						</g>
						<g>
							<g>
								<g>
									<g>
										<g>
											
												<rect x="113.657" y="403.262" transform="matrix(0.5662 -0.8242 0.8242 0.5662 -272.7099 288.7359)" style="fill:#B6D7FF;" width="48.631" height="0.414"/>
										</g>
									</g>
									<g>
										<g>
											
												<rect x="113.657" y="403.262" transform="matrix(0.8236 -0.5672 0.5672 0.8236 -204.5114 149.4443)" style="fill:#B6D7FF;" width="48.631" height="0.415"/>
										</g>
									</g>
								</g>
								<g>
									<g>
										<g>
											
												<rect x="147.576" y="369.344" transform="matrix(0.5661 -0.8244 0.8244 0.5661 -230.053 302.0605)" style="fill:#B6D7FF;" width="48.632" height="0.414"/>
										</g>
									</g>
									<g>
										<g>
											
												<rect x="147.576" y="369.343" transform="matrix(0.8236 -0.5672 0.5672 0.8236 -179.2876 162.6993)" style="fill:#B6D7FF;" width="48.632" height="0.415"/>
										</g>
									</g>
								</g>
							</g>
							<g>
								<g>
									<g>
										<g>
											
												<rect x="137.766" y="345.235" transform="matrix(0.5667 -0.8239 0.8239 0.5667 -244.7024 273.8227)" style="fill:#B6D7FF;" width="0.415" height="48.631"/>
										</g>
									</g>
									<g>
										<g>
											
												<rect x="137.766" y="345.235" transform="matrix(0.824 -0.5667 0.5667 0.824 -185.119 143.2414)" style="fill:#B6D7FF;" width="0.414" height="48.632"/>
										</g>
									</g>
								</g>
								<g>
									<g>
										<g>
											
												<rect x="171.684" y="379.154" transform="matrix(0.5667 -0.824 0.824 0.5667 -257.952 316.4701)" style="fill:#B6D7FF;" width="0.415" height="48.632"/>
										</g>
									</g>
									<g>
										<g>
											
												<rect x="171.685" y="379.154" transform="matrix(0.824 -0.5667 0.5667 0.824 -198.3684 168.4338)" style="fill:#B6D7FF;" width="0.414" height="48.631"/>
										</g>
									</g>
								</g>
							</g>
						</g>
					</g>
					<g>
						<g>
							<g>
								
									<ellipse transform="matrix(0.923 -0.3847 0.3847 0.923 -137.0253 89.4104)" style="fill:#FFFFFF;" cx="154.932" cy="387.144" rx="8.797" ry="8.797"/>
							</g>
						</g>
						<g>
							<g>
								<path style="fill:#266097;" d="M154.932,397.185c-5.536,0-10.041-4.504-10.041-10.041c0-5.537,4.504-10.041,10.041-10.041
									c5.537,0,10.041,4.505,10.041,10.041C164.973,392.681,160.469,397.185,154.932,397.185z M154.932,379.592
									c-4.164,0-7.553,3.388-7.553,7.552c0,4.164,3.388,7.552,7.553,7.552c4.165,0,7.553-3.387,7.553-7.552
									C162.485,382.98,159.097,379.592,154.932,379.592z"/>
							</g>
						</g>
					</g>
				</g>
				<g>
					<g>
						<path style="fill:#266097;" d="M154.932,343.745c23.931,0,43.4,19.469,43.4,43.4c0,23.931-19.469,43.4-43.4,43.4
							s-43.4-19.469-43.4-43.4C111.532,363.214,131.002,343.745,154.932,343.745 M154.932,336.33
							c-28.064,0-50.814,22.75-50.814,50.814c0,28.064,22.75,50.814,50.814,50.814s50.814-22.75,50.814-50.814
							C205.747,359.081,182.996,336.33,154.932,336.33L154.932,336.33z"/>
					</g>
				</g>
				<g>
					<g>
						<path style="fill:#004585;" d="M154.817,441.576c-30.135,0-54.653-24.517-54.653-54.653c0-30.135,24.517-54.652,54.653-54.652
							s54.652,24.516,54.652,54.652C209.469,417.059,184.952,441.576,154.817,441.576z M154.817,339.703
							c-26.037,0-47.221,21.183-47.221,47.22c0,26.037,21.183,47.221,47.221,47.221s47.22-21.183,47.22-47.221
							C202.037,360.886,180.854,339.703,154.817,339.703z"/>
					</g>
				</g>
				<g>
					<g>
						<path style="fill:#8CC0FF;" d="M204.572,423.744l-6.766-5.008c8.498-11.482,12.015-25.587,9.905-39.715
							c-2.111-14.128-9.597-26.59-21.08-35.087c-23.704-17.544-57.261-12.53-74.803,11.175l-6.766-5.008
							c20.304-27.435,59.142-33.235,86.576-12.934c13.29,9.836,21.954,24.257,24.397,40.61
							C218.478,394.129,214.407,410.454,204.572,423.744z"/>
					</g>
				</g>
				<g style="opacity:0.5;">
					<g>
						<g>
							<path style="fill:#FFFFFF;" d="M139.175,333.427c-0.861,0-1.654-0.566-1.902-1.436c-0.301-1.051,0.307-2.147,1.359-2.448
								c9.631-2.756,19.868-3.053,29.604-0.858c1.067,0.24,1.736,1.3,1.496,2.367c-0.241,1.067-1.301,1.736-2.367,1.496
								c-9.09-2.049-18.65-1.772-27.645,0.802C139.539,333.402,139.356,333.427,139.175,333.427z"/>
						</g>
					</g>
					<g>
						<g>
							<path style="fill:#FFFFFF;" d="M121.005,342.318c-0.61,0-1.211-0.28-1.599-0.81c-0.646-0.882-0.455-2.121,0.428-2.767
								c3.059-2.241,6.352-4.197,9.787-5.814c0.99-0.466,2.169-0.042,2.635,0.948c0.466,0.989,0.041,2.169-0.948,2.634
								c-3.206,1.509-6.28,3.335-9.135,5.426C121.82,342.193,121.411,342.318,121.005,342.318z"/>
						</g>
					</g>
				</g>
			</g>
			<g>
				<g>
					<g>
						<path style="fill:#004585;" d="M261.083,420.817h-17.546c-2.135,0-3.866-1.731-3.866-3.866l0,0
							c0-2.135,1.731-3.866,3.866-3.866h17.546c2.135,0,3.866,1.731,3.866,3.866l0,0
							C264.949,419.086,263.218,420.817,261.083,420.817z"/>
					</g>
				</g>
				<g>
					<g>
						<path style="fill:#152C4F;" d="M252.31,419.261c-1.276,0-2.31-1.034-2.31-2.31v-29.827c0-1.275,1.034-2.31,2.31-2.31
							s2.31,1.034,2.31,2.31v29.827C254.619,418.226,253.585,419.261,252.31,419.261z"/>
					</g>
				</g>
			</g>
			<g>
				<g>
					<path style="fill:#E35C5C;" d="M154.818,390.841c-0.362,0-0.73-0.053-1.093-0.165c-1.962-0.603-3.063-2.683-2.46-4.645
						l30.842-100.305c0.603-1.962,2.682-3.063,4.644-2.46c1.962,0.603,3.063,2.682,2.46,4.644l-30.842,100.305
						C157.877,389.814,156.407,390.841,154.818,390.841z"/>
				</g>
			</g>
			<g>
				<g>
					<path style="fill:#E35C5C;" d="M252.31,390.841c-0.406,0-0.819-0.067-1.224-0.209c-1.938-0.676-2.961-2.795-2.285-4.732
						l37.588-107.743c0.676-1.938,2.793-2.961,4.733-2.285c1.938,0.676,2.961,2.795,2.285,4.733l-37.588,107.743
						C255.284,389.881,253.846,390.841,252.31,390.841z"/>
				</g>
				<g style="opacity:0.15;">
					<path d="M286.296,278.424l-4.163,11.933l6.371,4.301l4.782-13.706c-1.375-0.862-2.881-1.534-4.417-1.987
						C288.033,278.718,287.167,278.53,286.296,278.424z"/>
				</g>
			</g>
			<g>
				<g>
					<path style="fill:#E35C5C;" d="M341.958,390.84h-90.921c-1.068,0-2.084-0.459-2.789-1.261l-71.315-80.998
						c-0.965-1.095-1.198-2.655-0.597-3.986c0.601-1.33,1.926-2.185,3.386-2.185h101.044c1.165,0,2.263,0.547,2.965,1.476
						l61.192,80.998c0.85,1.125,0.99,2.634,0.362,3.896C344.656,390.042,343.368,390.84,341.958,390.84z M252.717,383.408h81.777
						l-55.577-73.566h-90.971L252.717,383.408z"/>
				</g>
			</g>
			<g>
				<g>
					<g>
						<path style="fill:#266097;" d="M300.603,287.99c-14.761,1.293-36.645-2.832-36.645-12.326c0-4.601,6.185-4.198,10.786-4.198
							c0,0,25.785,0,25.836,0c9.087,0.003,11.361,13.545,2.21,16.093C302.244,287.711,301.508,287.911,300.603,287.99z"/>
					</g>
				</g>
			</g>
			<g>
				<g>
					
						<ellipse transform="matrix(0.7071 -0.7071 0.7071 0.7071 -199.8384 291.796)" style="fill:#8CC0FF;" cx="252.31" cy="387.124" rx="13.873" ry="13.873"/>
				</g>
			</g>
			<g>
				<g>
					<path style="fill:#004585;" d="M259.122,387.124c0,3.763-3.05,6.813-6.813,6.813c-3.763,0-6.813-3.05-6.813-6.813
						s3.05-6.813,6.813-6.813C256.072,380.311,259.122,383.362,259.122,387.124z"/>
				</g>
			</g>
			<g>
				<g>
					<path style="fill:#8CC0FF;" d="M185.66,290.12c-0.445,0-0.9-0.09-1.344-0.286c-1.54-0.679-2.264-2.469-1.783-4.083
						l3.628-12.163h-2.783c-7.623,0-14.123-5.916-14.412-13.533c-0.303-8.008,6.124-14.62,14.066-14.62h7.414
						c1.723,0,3.262,1.26,3.426,2.975c0.188,1.968-1.355,3.624-3.284,3.624h-7.337c-3.891,0-7.298,2.882-7.662,6.756
						c-0.418,4.445,3.083,8.198,7.443,8.198h7.397c0.745,0,1.496,0.186,2.097,0.627c1.163,0.854,1.615,2.306,1.224,3.616
						l-4.931,16.53C188.394,289.194,187.081,290.12,185.66,290.12z"/>
				</g>
			</g>
			<g>
				<g>
					<polygon style="fill:#004585;" points="187.481,293.808 179.622,293.808 183.672,280.31 191.631,280.31 					"/>
				</g>
			</g>
			<g>
				<g>
					<path style="fill:#B6D7FF;" d="M252.31,402.977c-8.741,0-15.853-7.112-15.853-15.853c0-8.741,7.112-15.853,15.853-15.853
						c5.668,0,65.543,5.578,89.841,7.958c5.245,0.514,7.606,4.255,7.619,7.736c0.014,3.602-2.594,7.525-7.605,8.054l0,0
						C318.489,397.517,258.501,402.977,252.31,402.977z M252.31,375.231c-6.558,0-11.893,5.336-11.893,11.894
						c0,6.558,5.335,11.893,11.893,11.893c5.575,0,64.191-5.273,89.44-7.937l0,0c2.815-0.297,4.068-2.274,4.061-4.101
						c-0.006-1.651-1.072-3.519-4.046-3.811C313.933,380.444,257.437,375.231,252.31,375.231z"/>
				</g>
			</g>
			<g>
				<g>
					<circle style="fill:#004585;" cx="341.958" cy="387.124" r="5.925"/>
				</g>
			</g>
			<g>
				<g>
					<g>
						<rect x="250" y="350.399" style="fill:#004585;" width="4.619" height="36.725"/>
					</g>
				</g>
				<g>
					<g>
						<path style="fill:#004585;" d="M243.403,348.073h17.546c2.135,0,3.866,1.731,3.866,3.866l0,0c0,2.135-1.731,3.866-3.866,3.866
							h-17.546c-2.135,0-3.866-1.731-3.866-3.866l0,0C239.537,349.804,241.267,348.073,243.403,348.073z"/>
					</g>
				</g>
			</g>
			<g>
				<g>
					<g>
						<path style="fill:#004585;" d="M371.893,309.708h-57.715c-2.052,0-3.716-1.663-3.716-3.716c0-2.053,1.664-3.716,3.716-3.716
							h57.715c2.052,0,3.716,1.663,3.716,3.716C375.609,308.045,373.945,309.708,371.893,309.708z"/>
					</g>
				</g>
			</g>
			<g>
				<g>
					<g>
						<path style="fill:#004585;" d="M340.656,389.15c-1.193,0-2.275-0.815-2.565-2.026l-19.271-80.518
							c-0.339-1.418,0.535-2.842,1.953-3.182c1.418-0.336,2.842,0.535,3.182,1.953l19.271,80.518
							c0.339,1.418-0.535,2.842-1.953,3.182C341.066,389.126,340.859,389.15,340.656,389.15z"/>
					</g>
				</g>
				<g>
					<g>
						<path style="fill:#004585;" d="M343.491,389.15c-0.204,0-0.41-0.024-0.617-0.073c-1.418-0.34-2.292-1.764-1.953-3.182
							l19.27-80.518c0.339-1.418,1.765-2.29,3.182-1.953c1.418,0.34,2.292,1.764,1.953,3.182l-19.27,80.518
							C345.766,388.336,344.684,389.15,343.491,389.15z"/>
					</g>
				</g>
			</g>
		</g>
		<g>
			<g>
				<g>
					<path style="fill:#266097;" d="M254.306,331.136c-0.492,0.365-2.639,8.717-5.697,10.84c-1.008,0.7-2.212,1.056-3.275,1.661
						c-1.354,0.771-2.719,2.384-2.535,4.042c0.242,2.18,2.661,2.756,4.484,2.908c2.633,0.22,6.837,0.146,8.948-1.518
						c2.529-1.993,5.198-11.87,3.598-14.805C258.816,332.407,256.016,329.867,254.306,331.136z"/>
				</g>
			</g>
			<g>
				<g>
					<path style="fill:#FE9B88;" d="M252.931,337.029c-2.559-0.492-5.589-1.513-7.609-2.254c-1.064-0.39-1.345-1.016-2.153-1.795
						c-1.769-1.706-3.764-3.778-4.639-6.123c-0.209-0.56-0.408-1.285-0.065-1.836c1.302-2.09,9.842-0.685,12.339,1.821
						c0.669,0.683,1.337,1.367,2.006,2.05c1.023,1.045,1.821,1.968,2.158,2.374C256.616,333.253,254.832,337.394,252.931,337.029z"
						/>
				</g>
			</g>
		</g>
		<g>
			<path style="fill:#004585;" d="M300.608,247.037c-0.511-1.651-1.491-2.899-3.187-3.197c-2.52-0.444-4.825,2.248-7.138,2.846
				c-7.292,1.885-14.465,4.232-21.461,7.023c-1.71,0.682-4.76-0.037-8.212-1.158c0.149,1.422,0.23,2.883,0.23,4.379
				c0,1.237-52.923,10.562-58.444,34.727c-5.201,22.767,42.926,43.119,42.926,43.119l5.482-7.933l-23.953-28.668
				c0.026,0.049,43.046-15.132,50.657-18.208c6.338-2.561,12.736-5.521,17.24-10.852
				C299.405,263.603,302.815,254.169,300.608,247.037z"/>
		</g>
		<g>
			<path style="fill:#152C4F;" d="M294.748,269.115c4.656-5.512,8.067-14.946,5.86-22.079c-0.511-1.651-1.491-2.899-3.187-3.197
				c-2.52-0.444-4.825,2.248-7.138,2.846c-7.292,1.885-14.465,4.232-21.461,7.023c-1.71,0.682-4.76-0.037-8.212-1.158
				c0.149,1.422,0.23,2.883,0.23,4.379c0,0.373-4.821,1.484-11.701,3.516c3.697,2.859,21.175,8.296,23.385,8.769
				c8.44,1.806,14.973,2.344,19.968,2.237C293.284,270.724,294.042,269.952,294.748,269.115z"/>
		</g>
		<g>
			<path style="fill:#E35C5C;" d="M301.296,257.627c-9.805-30.562-14.387-47.885-23.618-60.376
				c-17.068-23.097-38.878-26.978-49.165-9.535c-8.578,19.815,14.269,61.984,21.239,72.057c1.572,2.272,23,4.36,25.463,4.374
				C302.492,264.297,301.296,257.627,301.296,257.627z"/>
		</g>
		<g>
			<path style="fill:#E04848;" d="M242.207,177.269c0,0-10.065,7.879-13.694,10.446c-1.516,3.503-2.047,7.706-1.861,12.305
				C239.843,196.267,243.628,186.514,242.207,177.269z"/>
		</g>
		<g>
			<g>
				<path style="fill:#FE9B88;" d="M242.207,177.269l-1.948-8.43l-17.65,8.389c0,0,4.089,8.604,4.094,8.613
					c0.015,0.031,0.029,0.062,0.044,0.093c2.197,4.644,8.132,5.003,11.996,1.618C242.114,184.601,242.936,180.427,242.207,177.269z"
					/>
			</g>
			<g>
				<path style="fill:#FE785E;" d="M237.813,165.908l-15.204,11.321c0,0,3.151,8.116,3.155,8.125c0.846,1.779,1.1,3.233,5.654,4.287
					C240.883,188.747,237.813,165.908,237.813,165.908z"/>
			</g>
			<g>
				<path style="fill:#FE9B88;" d="M239.725,155.23c-2.112-9.823-3.591-21.171-20.815-14.821c-7.83,2.887-11.143-0.745-11.733,7.026
					c-0.611,8.039-1.392,15.992-0.254,24.025c0.727,5.13,2.054,10.768,5.608,14.731c3.313,3.695,8.103,4.605,12.839,3.682
					C239.527,187.114,242.488,168.085,239.725,155.23z"/>
			</g>
			<g>
				<g>
					<path style="fill:#152C4F;" d="M214.795,165.731c0.153,1.066-0.277,2.01-0.959,2.108c-0.682,0.098-1.359-0.688-1.512-1.754
						c-0.153-1.066,0.277-2.01,0.959-2.107C213.966,163.88,214.643,164.665,214.795,165.731z"/>
				</g>
			</g>
			<g>
				<g>
					<path style="fill:#152C4F;" d="M216.919,159.911c-0.048,0-0.097-0.005-0.146-0.017c-0.824-0.187-3.736-0.785-6.552-0.7
						c-0.402-0.003-0.669-0.275-0.68-0.639c-0.011-0.364,0.275-0.669,0.639-0.68c2.904-0.084,5.779,0.482,6.884,0.732
						c0.355,0.08,0.579,0.434,0.498,0.789C217.493,159.703,217.221,159.911,216.919,159.911z"/>
				</g>
			</g>
			<g>
				<path style="fill:#FE785E;" d="M208.487,173.292c-0.681,0-1.2-0.223-1.55-0.666c-1.168-1.481,0.471-4.771,0.811-5.416
					c0.17-0.322,0.569-0.445,0.892-0.275c0.322,0.17,0.445,0.569,0.275,0.892c-0.686,1.301-1.395,3.409-0.942,3.982
					c0.158,0.201,0.623,0.22,1.274,0.052c0.355-0.089,0.712,0.122,0.803,0.475c0.091,0.353-0.122,0.713-0.475,0.803
					C209.177,173.241,208.813,173.292,208.487,173.292z"/>
			</g>
			<g style="opacity:0.25;">
				<path style="fill:#152C4F;" d="M225.911,139.835c-5.56,3.428-4.446,11.926-1.881,17.48c1.549,3.355,4.062,6.411,7.465,7.851
					c3.027,1.281,6.797,1.023,9.351-0.968c0.024-3.33-1.479-15.452-4.712-20.809C232.121,136.739,233.087,141.11,225.911,139.835z"
					/>
			</g>
			<g>
				<path style="fill:#152C4F;" d="M241.059,144.659c-3.745,1.371-7.834,1.791-11.779,1.21c6.292-2.846,11.932-7.122,16.372-12.41
					c-5.891,0.774-11.612-2.083-17.514-2.768c-4.475-0.52-9.124,0.258-13.092,2.39c-3.969,2.133-7.22,5.64-8.857,9.838
					c-0.605,1.55-0.994,3.218-0.844,4.875c0.117,1.284,0.605,2.879,1.607,3.765c0.895,0.791,2.307,0.932,3.465,1.169
					c2.565,0.525,5.19,0.751,7.807,0.692c5.305-0.119,10.585-1.408,15.343-3.757C236.267,148.328,238.799,146.651,241.059,144.659z"
					/>
			</g>
			<g>
				<path style="fill:#FE9B88;" d="M232.649,168.022c0.8,0.517,5.07-2.127,2.855-7.898c-1.504-3.919-4.839-3.19-5.878-1.074
					C227.933,162.498,230.394,166.565,232.649,168.022z"/>
			</g>
			<g>
				<path style="fill:#FE785E;" d="M234.281,165.377c-0.954,0-1.864-0.594-2.496-1.63c-0.722-1.184-1.089-3.079-0.283-4.646
					c0.083-0.162,0.281-0.227,0.444-0.143c0.162,0.084,0.226,0.282,0.143,0.444c-0.689,1.34-0.367,2.975,0.259,4.001
					c0.509,0.835,1.214,1.314,1.933,1.314c0.182,0,0.33,0.148,0.33,0.33C234.611,165.23,234.463,165.377,234.281,165.377z"/>
			</g>
			<g>
				<path style="fill:#FE785E;" d="M212.197,176.421c-1.232,0-2.393-0.302-3.301-0.898c-0.305-0.2-0.389-0.609-0.189-0.914
					c0.2-0.305,0.61-0.389,0.914-0.189c1.29,0.847,3.376,0.906,5.191,0.147c1.141-0.477,3.138-1.686,3.686-4.424
					c0.071-0.357,0.424-0.587,0.776-0.518c0.357,0.071,0.589,0.419,0.518,0.776c-0.488,2.437-2.117,4.399-4.47,5.383
					C214.303,176.21,213.226,176.421,212.197,176.421z"/>
			</g>
			<g>
				<path style="fill:#152C4F;" d="M207.578,166.15c-0.13-0.908-0.64-1.606-1.21-1.735c0.031,1.28,0.094,2.56,0.2,3.842
					c0.017-0.001,0.034,0.003,0.051,0.001C207.301,168.16,207.731,167.217,207.578,166.15z"/>
			</g>
		</g>
		<g>
			<path style="fill:#E04848;" d="M259.861,233.803c0,0,0.089-29.53-8.211-37.616c-2.719-2.648-15.352,26.202-16.561,32.628
				c0.847,0.508,1.71,0.994,2.585,1.455c-0.471,1.452-0.939,2.897-1.398,4.321c3.169,7.212,6.595,13.757,9.413,18.639
				c1.47-2.128,2.691-4.5,3.693-6.99c1.497-3.721,2.762-7.579,3.787-11.519C254.812,234.759,258.222,234.102,259.861,233.803z"/>
		</g>
		<g>
			<path style="fill:#E04848;" d="M277.678,197.251c-2.356-3.189-4.805-5.997-7.299-8.448c3.584,15.75,8.691,31.154,14.951,46.051
				c3.047,7.251,6.437,14.5,11.629,20.409c1.184,1.348,2.486,2.637,3.986,3.604c0.441-0.732,0.351-1.24,0.351-1.24
				C291.491,227.065,286.909,209.742,277.678,197.251z"/>
		</g>
		<g>
			<g>
				<path style="fill:#004585;" d="M292.306,238.952c-0.344,0-0.695-0.06-1.037-0.188c-4.003-1.492-7.99-2.943-11.846-4.348
					c-16.584-6.038-32.248-11.742-44.788-19.066c-1.171-0.684-1.73-2.075-1.358-3.379c4.857-17.021,30.275-44.037,31.306-45.128
					c1.127-1.192,1.88-0.052,3.071,1.074c1.192,1.127,1.244,3.006,0.118,4.198c-0.232,0.245-22.181,23.579-28.057,39.292
					c11.744,6.507,26.339,11.821,41.74,17.428c3.866,1.408,7.864,2.863,11.888,4.363c1.537,0.573,2.318,2.283,1.746,3.82
					C294.644,238.214,293.511,238.952,292.306,238.952z"/>
			</g>
		</g>
		<g>
			<g>
				<path style="fill:#FE9B88;" d="M192.794,242.382c12.325-0.014,38.772-1.253,38.579-1.27c3.004-9.279,9.314-25.307,12.319-34.586
					c0.75-2.316,5.452-9.857,7.718-8.966c3.077,1.21,3.827,5.171,3.902,8.476c0.256,11.27-2.121,22.871-6.855,33.25
					c-2.524,5.534-6.439,10.415-12.355,12.702c-5.418,2.095-17.359,0.944-22.951,0.368c-3.576-0.368-11.433-1.437-14.3-3.042
					C195.644,247.538,192.267,246.012,192.794,242.382z"/>
			</g>
			<g>
				<g>
					<g>
						<g>
							<path style="fill:#004585;" d="M196.782,253.443H186.13c-2.6,0-4.707-2.107-4.707-4.707l0,0c0-2.6,2.107-4.707,4.707-4.707
								h10.653c2.6,0,4.707,2.107,4.707,4.707l0,0C201.489,251.335,199.382,253.443,196.782,253.443z"/>
						</g>
					</g>
					<g>
						<path style="fill:#152C4F;" d="M200.247,248.736c0,1.686-1.366,3.052-3.052,3.052c-1.686,0-3.052-1.367-3.052-3.052
							c0-1.686,1.366-3.052,3.052-3.052C198.881,245.684,200.247,247.05,200.247,248.736z"/>
					</g>
				</g>
				<g>
					<path style="fill:#FE9B88;" d="M184.056,248.987c0.751,3.275,4.784,4.206,6.533,1.094c1.1-1.956,1.849-6.819,9.658-6.291
						c0.462,0.031,2.151-0.216,1.112-1.248c-0.139-0.138-0.357-0.143-0.552-0.14c-1.202,0.021-2.473,0.175-3.635-0.096
						c-3.613-0.844-9.449-2.664-12.064,1.06C184.119,244.775,183.619,247.085,184.056,248.987z"/>
				</g>
			</g>
			<g>
				<path style="fill:#E35C5C;" d="M257.03,228.97c-7.754,1.249-15.691-1.128-22.632-4.803c1.189-5.576,14.578-32.643,17.252-30.345
					C259.814,200.838,257.03,228.97,257.03,228.97z"/>
			</g>
		</g>
		<g>
			<g>
				<path style="fill:#FFB957;" d="M372.027,226.478l-71.793,29.076l-37.799-93.332l86.857-35.176l31.698,78.269
					C384.359,213.634,380.346,223.109,372.027,226.478z"/>
			</g>
			<g>
				
					<rect x="264.854" y="143.496" transform="matrix(0.9269 -0.3754 0.3754 0.9269 -36.9157 128.6409)" style="fill:#FFA21F;" width="93.709" height="31.144"/>
			</g>
			<g>
				<g>
					
						<rect x="284.695" y="153.033" transform="matrix(0.9269 -0.3754 0.3754 0.9269 -42.2181 120.4994)" style="fill:#004585;" width="6.929" height="31.144"/>
				</g>
				<g>
					
						<rect x="331.793" y="133.958" transform="matrix(0.9269 -0.3754 0.3754 0.9269 -31.6134 136.7794)" style="fill:#004585;" width="6.929" height="31.144"/>
				</g>
			</g>
			
				<text transform="matrix(0.9269 -0.3754 0.3754 0.9269 297.5703 216.0661)" style="fill:#FFFFFF; font-family:'BebasKai'; font-size:21.7478px;">Delivery</text>
			<g style="opacity:0.15;">
				<path d="M380.99,205.315l-20.008-49.403l-11.691-28.866l-5.265,2.132c0,0,24.443,62.109,30.551,77.954
					c2.61,6.77,2.016,17.663-4.222,20.023l1.672-0.677C380.346,223.109,384.359,213.634,380.99,205.315z"/>
			</g>
			<g>
				<path style="fill:#004585;" d="M381.533,222.629l-72.895,29.522c-1.443,0.585-3.087-0.112-3.671-1.555l0,0
					c-0.585-1.443,0.112-3.087,1.555-3.671l72.895-29.522c1.443-0.585,3.087,0.112,3.671,1.555l0,0
					C383.672,220.4,382.976,222.044,381.533,222.629z"/>
			</g>
			<g>
				<g>
					<path style="fill:#266097;" d="M374.418,225.51l-72.895,29.522c-1.443,0.584-3.087-0.112-3.671-1.555l0,0
						c-0.585-1.443,0.112-3.087,1.555-3.671l72.895-29.522c1.443-0.585,3.087,0.112,3.671,1.555l0,0
						C376.558,223.282,375.862,224.925,374.418,225.51z"/>
				</g>
			</g>
		</g>
	</g>
	<g>
		<g>
			<g>
				<path style="fill:#FFA21F;" d="M141.702,66.129c-10.973-0.007-22.971,2.109-31.564,9.432
					c-9.775,8.33-12.218,22.151-8.811,34.137c5.194,18.272,41.03,62.935,41.03,62.935c0-0.001,20.139-52.337,20.139-52.337
					c3.254-5.817,4.963-12.37,4.963-19.035c0-16.245-2.371-21.57-18.379-24.761C146.783,76.042,143.973,66.13,141.702,66.129z
					 M133.217,112.148c-7.187,0-13.013-5.826-13.013-13.013s5.826-13.013,13.013-13.013c7.187,0,13.013,5.826,13.013,13.013
					S140.404,112.148,133.217,112.148z"/>
			</g>
		</g>
		<g>
			<g>
				<path style="fill:#FFB957;" d="M142.151,66.129c-18.609,0.349-33.587,15.543-33.587,34.235c0,0.338,0.005,0.7,0.013,1.081
					c0.139,6.169,1.829,12.206,4.799,17.614l29.429,53.574l29.279-52.337c3.254-5.817,4.963-12.37,4.963-19.035v0
					C177.047,82.068,161.341,65.769,142.151,66.129z M142.805,112.148c-7.187,0-13.013-5.826-13.013-13.013
					s5.826-13.013,13.013-13.013c7.187,0,13.013,5.826,13.013,13.013S149.992,112.148,142.805,112.148z"/>
			</g>
		</g>
	</g>
</g>
<g id="DESIGNED_BY_FREEPIK">
	<g>
		<g id="XMLID_1_">
			<g id="XMLID_20_">
				<g id="XMLID_28_">
					<g>
						<g>
							<g>
								<g>
									<g>
										<g>
											<g>
												<g>
													<g>
														<g>
															<g>
																<path style="fill:#1D262D;" d="M260.104,465.465c-0.432,0.443-0.803,0.931-1.108,1.453l-0.465-0.241
																	c-0.067-0.298-0.349-0.503-0.659-0.466c-0.331,0.039-0.568,0.339-0.529,0.67c0.039,0.331,0.339,0.568,0.67,0.529
																	c0.066-0.008,0.127-0.026,0.184-0.052l0.451,0.234c-0.251,0.554-0.433,1.139-0.539,1.744l0.746,0.132
																	c0.23-1.306,0.85-2.507,1.792-3.473L260.104,465.465z"/>
															</g>
														</g>
													</g>
												</g>
											</g>
										</g>
									</g>
								</g>
							</g>
						</g>
					</g>
				</g>
				<g id="XMLID_27_">
					<g>
						<g>
							<g>
								<g>
									<g>
										<g>
											<g>
												<g>
													<g>
														<g>
															<g>
																<path style="fill:#1D262D;" d="M265.592,463.163c-0.171,0-0.341,0.006-0.51,0.017l-0.074-0.626
																	c0.188-0.149,0.296-0.389,0.266-0.645c-0.046-0.393-0.402-0.674-0.795-0.628c-0.393,0.046-0.674,0.402-0.628,0.795
																	c0.03,0.254,0.189,0.461,0.404,0.564l0.074,0.624c-0.714,0.116-1.403,0.332-2.06,0.646l0.327,0.684
																	c0.934-0.447,1.942-0.673,2.995-0.673c0.496,0,0.993,0.053,1.475,0.158l0.161-0.741
																	C266.692,463.222,266.142,463.163,265.592,463.163z"/>
															</g>
														</g>
													</g>
												</g>
											</g>
										</g>
									</g>
								</g>
							</g>
						</g>
					</g>
				</g>
				<g id="XMLID_26_">
					<g>
						<g>
							<g>
								<g>
									<g>
										<g>
											<g>
												<g>
													<g>
														<g>
															<g>
																<path style="fill:#1D262D;" d="M272.194,465.711c0.331-0.04,0.566-0.341,0.526-0.672
																	c-0.04-0.331-0.341-0.566-0.672-0.526c-0.309,0.038-0.535,0.304-0.53,0.609l-0.416,0.363
																	c-0.418-0.43-0.889-0.813-1.408-1.139l-0.404,0.641c1.134,0.715,2.021,1.726,2.563,2.925l0.69-0.313
																	c-0.251-0.554-0.568-1.072-0.942-1.545l0.402-0.351C272.065,465.716,272.129,465.719,272.194,465.711z"/>
															</g>
														</g>
													</g>
												</g>
											</g>
										</g>
									</g>
								</g>
							</g>
						</g>
					</g>
				</g>
				<g id="XMLID_25_">
					<g>
						<g>
							<g>
								<g>
									<g>
										<g>
											<g>
												<g>
													<g>
														<g>
															<g>
																<path style="fill:#1D262D;" d="M265.044,473.372c-0.386,0.023-0.775,0.035-1.157,0.035
																	c-0.88,0-1.733-0.061-2.478-0.179c-0.39-0.062-0.846-0.155-1.27-0.292c1.046,1.861,3.069,3.125,5.388,3.125
																	c2.855,0,5.262-1.916,5.95-4.504c-0.682,0.449-1.505,0.825-2.459,1.123
																	C267.839,473.047,266.463,473.286,265.044,473.372z"/>
															</g>
														</g>
													</g>
												</g>
											</g>
										</g>
									</g>
								</g>
							</g>
						</g>
					</g>
				</g>
				<g id="XMLID_21_">
					<g>
						<g>
							<g>
								<g>
									<g>
										<g>
											<g>
												<g>
													<g>
														<g>
															<g>
																<path style="fill:#1D262D;" d="M265.592,464.68c-3.352,0-6.08,2.666-6.08,5.943c0,0.426,0.046,0.849,0.137,1.261
																	c0.673,0.483,2.706,0.89,5.348,0.731c2.879-0.173,5.297-0.957,6.672-2.159c-0.006-0.195-0.021-0.39-0.045-0.582
																	C271.244,466.913,268.65,464.68,265.592,464.68z M263.432,471.194c-1.02,0-1.85-0.83-1.85-1.85
																	c0-1.02,0.83-1.85,1.85-1.85c1.02,0,1.85,0.83,1.85,1.85C265.282,470.365,264.452,471.194,263.432,471.194z
																	 M268.17,470.286c-0.75,0-1.36-0.61-1.36-1.36s0.61-1.361,1.36-1.361c0.75,0,1.361,0.61,1.361,1.361
																	S268.92,470.286,268.17,470.286z"/>
															</g>
														</g>
													</g>
												</g>
											</g>
										</g>
									</g>
								</g>
							</g>
						</g>
					</g>
				</g>
			</g>
			<g id="XMLID_18_">
				<g>
					<g>
						<g>
							<g>
								<g>
									<g>
										<g>
											<g>
												<g>
													<g>
														<g>
															<path style="fill:#1D262D;" d="M281.595,466.547c-0.295-0.116-0.805-0.309-1.382-0.237
																c-0.551,0.069-0.844,0.341-0.844,1.007v0.866h2.228v1.717h-2.228v5.455h-1.932v-5.455h-1.34v-1.717h1.34v-0.888
																c0-1.68,0.896-2.783,2.568-2.783c0.643,0,1.157,0.122,1.59,0.308L281.595,466.547z"/>
														</g>
													</g>
												</g>
											</g>
										</g>
									</g>
								</g>
							</g>
						</g>
					</g>
				</g>
			</g>
			<g id="XMLID_16_">
				<g>
					<g>
						<g>
							<g>
								<g>
									<g>
										<g>
											<g>
												<g>
													<g>
														<g>
															<path style="fill:#1D262D;" d="M286.298,469.879c-0.177-0.03-0.358-0.046-0.526-0.046
																c-0.895,0-1.51,0.548-1.51,1.614v3.908h-1.932v-7.172h1.873v0.785c0.451-0.673,1.14-0.977,2.021-0.977
																c0.414,0,0.848,0.128,1.094,0.337L286.298,469.879z"/>
														</g>
													</g>
												</g>
											</g>
										</g>
									</g>
								</g>
							</g>
						</g>
					</g>
				</g>
			</g>
			<g id="XMLID_13_">
				<g>
					<g>
						<g>
							<g>
								<g>
									<g>
										<g>
											<g>
												<g>
													<g>
														<g>
															<path style="fill:#1D262D;" d="M293.965,471.757c0,0.222-0.015,0.489-0.037,0.651h-5.085
																c0.207,1.036,0.933,1.488,1.843,1.488c0.622,0,1.295-0.252,1.813-0.688l1.133,1.243
																c-0.814,0.748-1.85,1.088-3.057,1.088c-2.198,0-3.723-1.495-3.723-3.753c0-2.258,1.48-3.797,3.627-3.797
																C292.544,467.99,293.958,469.522,293.965,471.757z M288.851,471.091h3.175c-0.177-0.918-0.733-1.436-1.562-1.436
																C289.554,469.655,289.021,470.203,288.851,471.091z"/>
														</g>
													</g>
												</g>
											</g>
										</g>
									</g>
								</g>
							</g>
						</g>
					</g>
				</g>
			</g>
			<g id="XMLID_10_">
				<g>
					<g>
						<g>
							<g>
								<g>
									<g>
										<g>
											<g>
												<g>
													<g>
														<g>
															<path style="fill:#1D262D;" d="M301.618,471.757c0,0.222-0.015,0.489-0.037,0.651h-5.085
																c0.207,1.036,0.932,1.488,1.843,1.488c0.622,0,1.295-0.252,1.814-0.688l1.132,1.243
																c-0.814,0.748-1.85,1.088-3.057,1.088c-2.198,0-3.723-1.495-3.723-3.753c0-2.258,1.48-3.797,3.627-3.797
																C300.197,467.99,301.611,469.522,301.618,471.757z M296.504,471.091h3.175c-0.178-0.918-0.733-1.436-1.562-1.436
																C297.207,469.655,296.674,470.203,296.504,471.091z"/>
														</g>
													</g>
												</g>
											</g>
										</g>
									</g>
								</g>
							</g>
						</g>
					</g>
				</g>
			</g>
			<g id="XMLID_7_">
				<g>
					<g>
						<g>
							<g>
								<g>
									<g>
										<g>
											<g>
												<g>
													<g>
														<g>
															<path style="fill:#1D262D;" d="M309.964,471.764c0,2.154-1.495,3.775-3.471,3.775c-0.962,0-1.643-0.378-2.109-0.933
																v3.708h-1.924v-10.133h1.887v0.792c0.466-0.585,1.155-0.984,2.139-0.984
																C308.469,467.99,309.964,469.61,309.964,471.764z M304.287,471.764c0,1.132,0.747,1.976,1.843,1.976
																c1.14,0,1.85-0.881,1.85-1.976c0-1.095-0.711-1.976-1.85-1.976C305.035,469.788,304.287,470.632,304.287,471.764z"/>
														</g>
													</g>
												</g>
											</g>
										</g>
									</g>
								</g>
							</g>
						</g>
					</g>
				</g>
			</g>
			<g id="XMLID_4_">
				<g>
					<g>
						<g>
							<g>
								<g>
									<g>
										<g>
											<g>
												<g>
													<g>
														<g>
															<path style="fill:#1D262D;" d="M313.067,465.836c0,0.696-0.54,1.229-1.236,1.229c-0.696,0-1.229-0.533-1.229-1.229
																c0-0.696,0.533-1.243,1.229-1.243C312.527,464.592,313.067,465.14,313.067,465.836z M312.809,475.354h-1.932v-7.172
																h1.932V475.354z"/>
														</g>
													</g>
												</g>
											</g>
										</g>
									</g>
								</g>
							</g>
						</g>
					</g>
				</g>
			</g>
			<g id="XMLID_2_">
				<g>
					<g>
						<g>
							<g>
								<g>
									<g>
										<g>
											<g>
												<g>
													<g>
														<g>
															<path style="fill:#1D262D;" d="M316.032,470.736l2.702-2.554h2.368l-3.479,3.375l3.501,3.797h-2.376l-2.716-2.901
																v2.901H314.1v-10.658h1.932V470.736z"/>
														</g>
													</g>
												</g>
											</g>
										</g>
									</g>
								</g>
							</g>
						</g>
					</g>
				</g>
			</g>
		</g>
		<g>
			<g>
				<g>
					<g>
						<g>
							<g>
								<g>
									<g>
										<g>
											<g>
												<g>
													<g>
														<g>
															<path style="fill:#1D262D;" d="M184.412,475.289v-1.055c-0.527,0.718-1.391,1.23-2.387,1.23
																c-1.846,0-3.149-1.406-3.149-3.706c0-2.256,1.289-3.721,3.149-3.721c0.952,0,1.816,0.469,2.387,1.245v-3.765h1.099
																v9.77H184.412z M184.412,473.37v-3.208c-0.395-0.615-1.245-1.143-2.124-1.143c-1.421,0-2.27,1.172-2.27,2.739
																c0,1.567,0.85,2.724,2.27,2.724C183.168,474.483,184.017,473.986,184.412,473.37z"/>
														</g>
													</g>
												</g>
											</g>
										</g>
									</g>
								</g>
							</g>
						</g>
					</g>
				</g>
			</g>
			<g>
				<g>
					<g>
						<g>
							<g>
								<g>
									<g>
										<g>
											<g>
												<g>
													<g>
														<g>
															<path style="fill:#1D262D;" d="M186.932,471.744c0-2.051,1.465-3.706,3.486-3.706c2.139,0,3.398,1.67,3.398,3.794
																v0.279h-5.727c0.088,1.333,1.025,2.446,2.549,2.446c0.805,0,1.626-0.322,2.182-0.894l0.527,0.718
																c-0.703,0.703-1.655,1.084-2.812,1.084C188.44,475.465,186.932,473.956,186.932,471.744z M190.403,468.947
																c-1.509,0-2.256,1.274-2.314,2.358h4.643C192.718,470.25,192.015,468.947,190.403,468.947z"/>
														</g>
													</g>
												</g>
											</g>
										</g>
									</g>
								</g>
							</g>
						</g>
					</g>
				</g>
			</g>
			<g>
				<g>
					<g>
						<g>
							<g>
								<g>
									<g>
										<g>
											<g>
												<g>
													<g>
														<g>
															<path style="fill:#1D262D;" d="M194.607,474.351l0.571-0.791c0.469,0.542,1.362,1.011,2.329,1.011
																c1.084,0,1.67-0.513,1.67-1.216c0-1.714-4.38-0.659-4.38-3.281c0-1.098,0.952-2.036,2.636-2.036
																c1.201,0,2.051,0.454,2.622,1.026l-0.513,0.762c-0.424-0.513-1.201-0.894-2.109-0.894
																c-0.967,0-1.567,0.483-1.567,1.113c0,1.552,4.38,0.527,4.38,3.281c0,1.187-0.952,2.138-2.783,2.138
																C196.306,475.465,195.325,475.113,194.607,474.351z"/>
														</g>
													</g>
												</g>
											</g>
										</g>
									</g>
								</g>
							</g>
						</g>
					</g>
				</g>
			</g>
			<g>
				<g>
					<g>
						<g>
							<g>
								<g>
									<g>
										<g>
											<g>
												<g>
													<g>
														<g>
															<path style="fill:#1D262D;" d="M201.477,466.471c0-0.41,0.337-0.747,0.732-0.747c0.41,0,0.747,0.337,0.747,0.747
																c0,0.41-0.337,0.732-0.747,0.732C201.814,467.203,201.477,466.881,201.477,466.471z M201.667,475.289v-7.075h1.099
																v7.075H201.667z"/>
														</g>
													</g>
												</g>
											</g>
										</g>
									</g>
								</g>
							</g>
						</g>
					</g>
				</g>
			</g>
			<g>
				<g>
					<g>
						<g>
							<g>
								<g>
									<g>
										<g>
											<g>
												<g>
													<g>
														<g>
															<path style="fill:#1D262D;" d="M204.582,477.105l0.556-0.82c0.586,0.703,1.289,0.967,2.3,0.967
																c1.172,0,2.27-0.571,2.27-2.124v-1.011c-0.513,0.718-1.377,1.26-2.373,1.26c-1.845,0-3.149-1.377-3.149-3.662
																c0-2.27,1.289-3.677,3.149-3.677c0.952,0,1.802,0.469,2.373,1.245v-1.069h1.098v6.87
																c0,2.344-1.641,3.076-3.369,3.076C206.237,478.16,205.417,477.926,204.582,477.105z M209.709,473.253v-3.091
																c-0.381-0.615-1.23-1.143-2.109-1.143c-1.421,0-2.27,1.128-2.27,2.695c0,1.553,0.849,2.695,2.27,2.695
																C208.478,474.41,209.328,473.868,209.709,473.253z"/>
														</g>
													</g>
												</g>
											</g>
										</g>
									</g>
								</g>
							</g>
						</g>
					</g>
				</g>
			</g>
			<g>
				<g>
					<g>
						<g>
							<g>
								<g>
									<g>
										<g>
											<g>
												<g>
													<g>
														<g>
															<path style="fill:#1D262D;" d="M217.413,475.289v-4.629c0-1.245-0.63-1.641-1.582-1.641
																c-0.865,0-1.685,0.527-2.095,1.099v5.17h-1.099v-7.075h1.099v1.025c0.498-0.586,1.465-1.201,2.519-1.201
																c1.48,0,2.256,0.747,2.256,2.285v4.966H217.413z"/>
														</g>
													</g>
												</g>
											</g>
										</g>
									</g>
								</g>
							</g>
						</g>
					</g>
				</g>
			</g>
			<g>
				<g>
					<g>
						<g>
							<g>
								<g>
									<g>
										<g>
											<g>
												<g>
													<g>
														<g>
															<path style="fill:#1D262D;" d="M219.932,471.744c0-2.051,1.465-3.706,3.486-3.706c2.139,0,3.398,1.67,3.398,3.794
																v0.279h-5.727c0.088,1.333,1.025,2.446,2.549,2.446c0.806,0,1.626-0.322,2.183-0.894l0.527,0.718
																c-0.703,0.703-1.655,1.084-2.812,1.084C221.441,475.465,219.932,473.956,219.932,471.744z M223.404,468.947
																c-1.509,0-2.256,1.274-2.314,2.358h4.643C225.718,470.25,225.015,468.947,223.404,468.947z"/>
														</g>
													</g>
												</g>
											</g>
										</g>
									</g>
								</g>
							</g>
						</g>
					</g>
				</g>
			</g>
			<g>
				<g>
					<g>
						<g>
							<g>
								<g>
									<g>
										<g>
											<g>
												<g>
													<g>
														<g>
															<path style="fill:#1D262D;" d="M233.35,475.289v-1.055c-0.527,0.718-1.392,1.23-2.388,1.23
																c-1.846,0-3.149-1.406-3.149-3.706c0-2.256,1.289-3.721,3.149-3.721c0.952,0,1.817,0.469,2.388,1.245v-3.765h1.098
																v9.77H233.35z M233.35,473.37v-3.208c-0.396-0.615-1.245-1.143-2.124-1.143c-1.421,0-2.27,1.172-2.27,2.739
																c0,1.567,0.849,2.724,2.27,2.724C232.105,474.483,232.954,473.986,233.35,473.37z"/>
														</g>
													</g>
												</g>
											</g>
										</g>
									</g>
								</g>
							</g>
						</g>
					</g>
				</g>
			</g>
			<g>
				<g>
					<g>
						<g>
							<g>
								<g>
									<g>
										<g>
											<g>
												<g>
													<g>
														<g>
															<path style="fill:#1D262D;" d="M239.692,475.289v-9.77h1.098v3.765c0.572-0.776,1.421-1.245,2.388-1.245
																c1.845,0,3.149,1.465,3.149,3.721c0,2.299-1.304,3.706-3.149,3.706c-0.996,0-1.86-0.513-2.388-1.23v1.055H239.692z
																 M242.9,474.483c1.436,0,2.285-1.157,2.285-2.724c0-1.568-0.85-2.739-2.285-2.739c-0.864,0-1.728,0.527-2.109,1.143
																v3.208C241.171,473.986,242.036,474.483,242.9,474.483z"/>
														</g>
													</g>
												</g>
											</g>
										</g>
									</g>
								</g>
							</g>
						</g>
					</g>
				</g>
			</g>
			<g>
				<g>
					<g>
						<g>
							<g>
								<g>
									<g>
										<g>
											<g>
												<g>
													<g>
														<g>
															<path style="fill:#1D262D;" d="M247.528,477.061c0.161,0.073,0.425,0.117,0.601,0.117
																c0.483,0,0.805-0.161,1.055-0.747l0.469-1.069l-2.959-7.148h1.187l2.358,5.8l2.344-5.8h1.201l-3.545,8.51
																c-0.425,1.025-1.143,1.421-2.08,1.435c-0.234,0-0.601-0.044-0.806-0.103L247.528,477.061z"/>
														</g>
													</g>
												</g>
											</g>
										</g>
									</g>
								</g>
							</g>
						</g>
					</g>
				</g>
			</g>
		</g>
	</g>
</g>
</svg>
